# xmcd
#
# Track frame offsets:
#	183
#	15980
#	34155
#	46510
#	61808
#	89395
#	105588
#	121315
#	139803
#	161158
#	178423
#	198645
#
# Disc length: 2897 seconds
#
# Revision: 1
# Processed by: cddbd v1.5.2PL0 Copyright (c) Steve Scherf et al.
# Submitted via: audiograbber 1.83.01
#
DISCID=9d0b4f0c
DTITLE=Buckner, Milt - Amouroux, Jean-Paul - Boogie for Piano and Organ
DYEAR=1975
DGENRE=Blues
TTITLE0=Sixth Avenue Express No 1
TTITLE1=Swanee River Boogie
TTITLE2=Meridien Blues
TTITLE3=Yancey Special
TTITLE4=Hamps Boogie Woogie
TTITLE5=Devils Boogie
TTITLE6=You are my Sunshine
TTITLE7=Honky Tonk Train Blues
TTITLE8=Pinetops Boogoe Woogie
TTITLE9=Sixth Avenue Express No 2
TTITLE10=Boogie Woogie on Lady be Good
TTITLE11=Death Ray Boogie
EXTD=
EXTT0=
EXTT1=
EXTT2=
EXTT3=
EXTT4=
EXTT5=
EXTT6=
EXTT7=
EXTT8=
EXTT9=
EXTT10=
EXTT11=
PLAYORDER=
